<svg class="icon" viewBox="0 0 1024 1024" xmlns="http://www.w3.org/2000/svg" width="128" height="128"><defs><style>@font-face{font-family:feedback-iconfont;src:url(//at.alicdn.com/t/font_1031158_u69w8yhxdu.woff2?t=1630033759944) format(&quot;woff2&quot;),url(//at.alicdn.com/t/font_1031158_u69w8yhxdu.woff?t=1630033759944) format(&quot;woff&quot;),url(//at.alicdn.com/t/font_1031158_u69w8yhxdu.ttf?t=1630033759944) format(&quot;truetype&quot;)}</style></defs><path d="M854.6 288.6 639.4 73.4c-6-6-14.1-9.4-22.6-9.4H192c-17.7 0-32 14.3-32 32v832c0 17.7 14.3 32 32 32h640c17.7 0 32-14.3 32-32V311.3c0-8.5-3.4-16.7-9.4-22.7zM790.2 326H602V137.8L790.2 326zm1.8 562H232V136h302v216c0 23.2 18.8 42 42 42h216v494z"/></svg>