<svg class="icon" viewBox="0 0 1024 1024" xmlns="http://www.w3.org/2000/svg" width="128" height="128"><defs><style>@font-face{font-family:feedback-iconfont;src:url(//at.alicdn.com/t/font_1031158_u69w8yhxdu.woff2?t=1630033759944) format(&quot;woff2&quot;),url(//at.alicdn.com/t/font_1031158_u69w8yhxdu.woff?t=1630033759944) format(&quot;woff&quot;),url(//at.alicdn.com/t/font_1031158_u69w8yhxdu.ttf?t=1630033759944) format(&quot;truetype&quot;)}</style></defs><path d="M810.667 640V213.333A85.333 85.333 0 0 0 725.333 128H128a85.333 85.333 0 0 0-85.333 85.333V640A85.333 85.333 0 0 0 128 725.333h597.333A85.333 85.333 0 0 0 810.667 640zm-384-85.333a120.747 120.747 0 0 1-70.4-22.187L128 372.48V281.6l270.933 189.867a48.64 48.64 0 0 0 55.467 0L725.333 281.6v90.88l-228.266 160a120.747 120.747 0 0 1-70.4 22.187zm469.333-256v426.666a85.333 85.333 0 0 1-85.333 85.334H213.333A85.333 85.333 0 0 0 298.667 896h512a170.667 170.667 0 0 0 170.666-170.667V384A85.333 85.333 0 0 0 896 298.667z"/></svg>