<svg class="icon" viewBox="0 0 1024 1024" xmlns="http://www.w3.org/2000/svg" width="128" height="128"><defs><style>@font-face{font-family:feedback-iconfont;src:url(//at.alicdn.com/t/font_1031158_u69w8yhxdu.woff2?t=1630033759944) format(&quot;woff2&quot;),url(//at.alicdn.com/t/font_1031158_u69w8yhxdu.woff?t=1630033759944) format(&quot;woff&quot;),url(//at.alicdn.com/t/font_1031158_u69w8yhxdu.ttf?t=1630033759944) format(&quot;truetype&quot;)}</style></defs><path d="M841.704 99.863H182.286c-45.517 0-82.417 36.911-82.417 82.438v659.408c0 45.517 36.9 82.428 82.417 82.428h659.418c45.527 0 82.427-36.911 82.427-82.428V182.301c0-45.527-36.9-82.438-82.427-82.438zm-123.646 329.71V512H553.214v82.427h164.844v82.417H553.214V800.49h-82.428V676.844H305.932v-82.417h164.854V512H305.932v-82.427h178.024L264.713 223.52h123.646l123.636 123.625L635.64 223.52h123.636l-210.8 206.053h169.582z"/></svg>