<?xml version="1.0" standalone="no"?><!DOCTYPE svg PUBLIC "-//W3C//DTD SVG 1.1//EN" "http://www.w3.org/Graphics/SVG/1.1/DTD/svg11.dtd"><svg t="1655689319942" class="icon" viewBox="0 0 1024 1024" version="1.1" xmlns="http://www.w3.org/2000/svg" p-id="17806" xmlns:xlink="http://www.w3.org/1999/xlink" width="128" height="128"><defs><style type="text/css">@font-face { font-family: feedback-iconfont; src: url("//at.alicdn.com/t/font_1031158_u69w8yhxdu.woff2?t=1630033759944") format("woff2"), url("//at.alicdn.com/t/font_1031158_u69w8yhxdu.woff?t=1630033759944") format("woff"), url("//at.alicdn.com/t/font_1031158_u69w8yhxdu.ttf?t=1630033759944") format("truetype"); }
</style></defs><path d="M482.133333 366.933333c4.266667 0 4.266667 0 0 0 4.266667-17.066667 8.533333-25.6 8.533334-38.4v-8.533333c4.266667-21.333333 4.266667-38.4 0-42.666667v-4.266666l-4.266667-4.266667s0 4.266667-4.266667 4.266667c-8.533333 25.6-8.533333 55.466667 0 93.866666z m-128 294.4c-8.533333 4.266667-17.066667 8.533333-21.333333 12.8-29.866667 25.6-51.2 55.466667-55.466667 68.266667 25.6-4.266667 51.2-29.866667 76.8-81.066667 4.266667 0 4.266667 0 0 0 4.266667 0 0 0 0 0z m392.533334-64c-4.266667-4.266667-21.333333-17.066667-81.066667-17.066666h-8.533333v4.266666c29.866667 12.8 59.733333 21.333333 81.066666 21.333334H750.933333v-4.266667s-4.266667 0-4.266666-4.266667zM810.666667 128H213.333333c-46.933333 0-85.333333 38.4-85.333333 85.333333v597.333334c0 46.933333 38.4 85.333333 85.333333 85.333333h597.333334c46.933333 0 85.333333-38.4 85.333333-85.333333V213.333333c0-46.933333-38.4-85.333333-85.333333-85.333333z m-46.933334 503.466667c-8.533333 4.266667-21.333333 8.533333-38.4 8.533333-34.133333 0-85.333333-8.533333-128-29.866667-72.533333 8.533333-128 17.066667-170.666666 34.133334-4.266667 0-4.266667 0-8.533334 4.266666-51.2 89.6-93.866667 132.266667-128 132.266667-8.533333 0-12.8 0-17.066666-4.266667l-21.333334-12.8v-4.266666c-4.266667-8.533333-4.266667-12.8-4.266666-21.333334 4.266667-21.333333 29.866667-59.733333 81.066666-89.6 8.533333-4.266667 21.333333-12.8 38.4-21.333333 12.8-21.333333 25.6-46.933333 42.666667-76.8 21.333333-42.666667 34.133333-85.333333 46.933333-123.733333-17.066667-51.2-25.6-81.066667-8.533333-140.8 4.266667-17.066667 17.066667-34.133333 34.133333-34.133334h8.533334c8.533333 0 17.066667 4.266667 25.6 8.533334 29.866667 29.866667 17.066667 98.133333 0 153.6v4.266666c17.066667 46.933333 42.666667 85.333333 68.266666 110.933334 12.8 8.533333 21.333333 17.066667 38.4 25.6 21.333333 0 38.4-4.266667 55.466667-4.266667 51.2 0 85.333333 8.533333 98.133333 29.866667 4.266667 8.533333 4.266667 17.066667 4.266667 25.6-4.266667 4.266667-8.533333 17.066667-17.066667 25.6z m-277.333333-166.4c-8.533333 29.866667-25.6 64-42.666667 102.4-8.533333 17.066667-17.066667 29.866667-25.6 46.933333h8.533334c55.466667-21.333333 106.666667-34.133333 140.8-38.4-8.533333-4.266667-12.8-8.533333-17.066667-12.8-21.333333-25.6-46.933333-59.733333-64-98.133333z" p-id="17807"></path></svg>